<?xml version="1.0" encoding="UTF-8" standalone="no"?>
<!-- Created with Inkscape (http://www.inkscape.org/) -->

<svg
   xmlns:dc="http://purl.org/dc/elements/1.1/"
   xmlns:cc="http://creativecommons.org/ns#"
   xmlns:rdf="http://www.w3.org/1999/02/22-rdf-syntax-ns#"
   xmlns:svg="http://www.w3.org/2000/svg"
   xmlns="http://www.w3.org/2000/svg"
   xmlns:sodipodi="http://sodipodi.sourceforge.net/DTD/sodipodi-0.dtd"
   xmlns:inkscape="http://www.inkscape.org/namespaces/inkscape"
   width="66mm"
   height="11mm"
   viewBox="0 0 66 11"
   version="1.1"
   id="svg886"
   inkscape:version="0.92.3 (2405546, 2018-03-11)"
   sodipodi:docname="agroecomakers5.svg">
  <defs
     id="defs880">
    <inkscape:perspective
       sodipodi:type="inkscape:persp3d"
       inkscape:vp_x="0 : 5.0000002 : 1"
       inkscape:vp_y="0 : 1000 : 0"
       inkscape:vp_z="71.999996 : 5.0000002 : 1"
       inkscape:persp3d-origin="35.999999 : 3.3333335 : 1"
       id="perspective20987" />
  </defs>
  <sodipodi:namedview
     id="base"
     pagecolor="#ffffff"
     bordercolor="#666666"
     borderopacity="1.0"
     inkscape:pageopacity="0.0"
     inkscape:pageshadow="2"
     inkscape:zoom="3.959798"
     inkscape:cx="97.692249"
     inkscape:cy="37.839569"
     inkscape:document-units="mm"
     inkscape:current-layer="layer1"
     showgrid="false"
     inkscape:window-width="1613"
     inkscape:window-height="1022"
     inkscape:window-x="67"
     inkscape:window-y="0"
     inkscape:window-maximized="1" />
  <metadata
     id="metadata883">
    <rdf:RDF>
      <cc:Work
         rdf:about="">
        <dc:format>image/svg+xml</dc:format>
        <dc:type
           rdf:resource="http://purl.org/dc/dcmitype/StillImage" />
        <dc:title />
      </cc:Work>
    </rdf:RDF>
  </metadata>
  <g
     inkscape:label="Calque 1"
     inkscape:groupmode="layer"
     id="layer1"
     transform="translate(0,-286)">
    <g
       id="g21345"
       transform="translate(0.81264882,0.05669642)">
      <path
         id="path52"
         d="m 4.9731652,289.83042 c -0.7029522,-1.7e-4 -1.2729555,0.59106 -1.2731776,1.32054 0,0.47675 0.2470461,0.9164 0.6470325,1.15083 0.012103,0.008 0.026736,0.01 0.040409,0.004 0.013469,-0.003 0.024719,-0.0131 0.031646,-0.0259 l 0.392573,-0.71998 c 0.01458,-0.0265 0.00555,-0.06 -0.020001,-0.075 -0.178771,-0.10427 -0.2423272,-0.33924 -0.1419374,-0.52498 0.1006171,-0.1855 0.3269972,-0.25157 0.5057638,-0.14723 0.1787712,0.10407 0.242332,0.33923 0.1419436,0.52474 -0.033468,0.0617 -0.082419,0.11263 -0.1419436,0.14747 -0.025625,0.0149 -0.034583,0.0484 -0.020003,0.075 l 0.3914545,0.71998 c 0.00693,0.0127 0.018436,0.0222 0.031901,0.0259 0.00459,7.3e-4 0.00939,0.002 0.014128,0.002 0.00918,0 0.018188,-0.003 0.026288,-0.008 0.612225,-0.35848 0.8284987,-1.16427 0.4830834,-1.79962 -0.2259294,-0.41529 -0.6497208,-0.67223 -1.1092282,-0.67199 z m 0,0"
         style="fill:#516bfd;fill-opacity:1;fill-rule:nonzero;stroke:none;stroke-width:0.05842012"
         inkscape:connector-curvature="0" />
      <path
         id="path54"
         d="m 7.4352016,292.72631 c 0.579914,-0.39655 0.771397,-1.13735 1.202542,-1.11706 0.2600798,0.10206 -0.572546,1.66603 -0.973818,1.772 -0.47302,0.21466 -0.592748,0.2699 -1.19118,0.3987 -0.641776,0.13798 -1.394863,-0.59483 -2.08062,-0.74588 -0.07806,-0.0172 -0.230826,0.0944 -0.230826,-0.0267 l 0.122883,-0.23359 c 0.0223,-0.0423 0.02126,-0.0958 -0.0029,-0.137 l -0.139929,-0.23926 c -0.01954,-0.0336 -0.0177,-0.0786 0.0061,-0.10851 0.740045,-0.93439 1.590136,0.17019 2.299249,0.13076 0.939516,-0.0519 1.385394,0.33723 0.591908,0.56536 -0.150453,0.0431 -0.991287,-0.10227 -1.310282,0.0398"
         style="fill:#ffffff;fill-opacity:1;fill-rule:nonzero;stroke:#000000;stroke-width:0.04134558;stroke-linecap:butt;stroke-linejoin:miter;stroke-miterlimit:4;stroke-opacity:1"
         inkscape:connector-curvature="0" />
      <path
         id="path56"
         d="m 7.1425086,291.45059 c -0.293741,-1.00739 0.648091,-1.15453 0.668501,-1.15453 0.02022,0 0.455135,1.06515 -0.668501,1.15453"
         style="fill:#008500;fill-opacity:1;fill-rule:nonzero;stroke:none;stroke-width:0.0518765"
         inkscape:connector-curvature="0" />
      <path
         id="path58"
         d="m 6.5870036,290.35285 c 0.374755,-0.918 -0.826312,-1.05207 -0.852192,-1.05207 -0.0261,0 -0.161606,1.27727 0.852192,1.05207"
         style="fill:#008500;fill-opacity:1;fill-rule:nonzero;stroke:none;stroke-width:0.0518765"
         inkscape:connector-curvature="0" />
      <path
         id="path60"
         d="m 6.8769636,292.41153 c 0.09805,-0.96485 0.676703,-1.59304 0.676703,-1.59304"
         style="fill:none;stroke:#000000;stroke-width:0.03102215;stroke-linecap:butt;stroke-linejoin:miter;stroke-miterlimit:4;stroke-opacity:1"
         inkscape:connector-curvature="0" />
      <path
         id="path62"
         d="m 6.8432926,292.39923 c 0.158024,-2.36272 -0.811794,-2.56881 -0.811794,-2.56881"
         style="fill:none;stroke:#000000;stroke-width:0.03102215;stroke-linecap:butt;stroke-linejoin:miter;stroke-miterlimit:4;stroke-opacity:1"
         inkscape:connector-curvature="0" />
    </g>
    <path
       inkscape:connector-curvature="0"
       style="fill:none;stroke:#516bfd;stroke-width:0.78806156;stroke-linecap:butt;stroke-linejoin:miter;stroke-miterlimit:4;stroke-opacity:1"
       d="M 55.953715,295.86872 H 6.7666058 c -3.6364326,0 -5.3149586,-1.93235 -5.2685971,-4.33073 0.046267,-2.39335 1.6594584,-4.37173 5.2685971,-4.35015 l 49.2202592,0.29435 c 3.084461,0.0184 5.092817,1.64902 5.092817,4.04608 0,2.39708 -1.917507,4.34045 -5.125967,4.34045 z"
       id="path50"
       sodipodi:nodetypes="sssssss" />
    <g
       id="g21331"
       transform="matrix(1.208109,0,0,1.0651292,3.0762032,-19.28204)">
      <g
         transform="matrix(0.05578249,0,0,0.10371076,5.99023,294.14842)"
         style="fill:#008500;fill-opacity:1"
         id="use64">
        <path
           style="stroke:none"
           d="M 13.8125,-20.0625 V -9.515625 H 11.25 V 0 H 2.375 v -25.421875 c 0,-4.914063 1,-8.734375 3,-11.453125 2.007812,-2.726562 4.832031,-4.09375 8.46875,-4.09375 3.488281,0 6.070312,1.234375 7.75,3.703125 1.675781,2.46875 2.515625,6.28125 2.515625,11.4375 V 0 h -8.875 v -25.046875 c 0,-1.5625 -0.140625,-2.644531 -0.421875,-3.25 -0.273438,-0.601563 -0.765625,-0.90625 -1.484375,-0.90625 -1.386719,0 -2.078125,1.386719 -2.078125,4.15625 v 4.984375 z m 0,0"
           id="path1085"
           inkscape:connector-curvature="0" />
      </g>
      <g
         transform="matrix(0.05578249,0,0,0.10371076,7.7824047,294.14842)"
         style="fill:#008500;fill-opacity:1"
         id="use66">
        <path
           style="stroke:none"
           d="m 15.625,-22.40625 h 8.46875 c 1.8125,3.03125 2.71875,6.226562 2.71875,9.578125 0,3.90625 -1.070312,7.1875 -3.203125,9.84375 -2.125,2.65625 -4.75,3.984375 -7.875,3.984375 -4.054687,0 -7.492187,-2.054688 -10.3125,-6.171875 -2.824219,-4.125 -4.234375,-9.144531 -4.234375,-15.0625 0,-5.9375 1.4375,-10.875 4.3125,-14.8125 2.875,-3.945313 6.46875,-5.921875 10.78125,-5.921875 1.46875,0 3.101562,0.398438 4.90625,1.1875 v 11.890625 c -1.40625,-0.875 -2.683594,-1.3125 -3.828125,-1.3125 -2.085937,0 -3.789063,0.871094 -5.109375,2.609375 -1.324219,1.742188 -1.984375,3.996094 -1.984375,6.765625 0,2.835937 0.613281,5.078125 1.84375,6.734375 1.226563,1.65625 2.882813,2.484375 4.96875,2.484375 1.320313,0 1.984375,-0.515625 1.984375,-1.546875 0,-0.78125 -0.4375,-1.171875 -1.3125,-1.171875 h -2.125 z m 0,0"
           id="path1081"
           inkscape:connector-curvature="0" />
      </g>
      <g
         transform="matrix(0.05578249,0,0,0.10371076,9.4565245,294.14842)"
         style="fill:#008500;fill-opacity:1"
         id="use68">
        <path
           style="stroke:none"
           d="M 11.875,-29.234375 V 0 H 3 v -39.984375 h 11.375 c 3.46875,0 6.160156,1.152344 8.078125,3.453125 2.125,2.585938 3.1875,5.855469 3.1875,9.8125 0,4.042969 -1.320313,7.453125 -3.953125,10.234375 L 26.796875,0 h -9.3125 L 13.1875,-12.890625 v -10.28125 h 0.6875 c 1.863281,0 2.796875,-1.070313 2.796875,-3.21875 0,-1.894531 -1.078125,-2.84375 -3.234375,-2.84375 z m 0,0"
           id="path1073"
           inkscape:connector-curvature="0" />
      </g>
      <g
         transform="matrix(0.05578249,0,0,0.10371076,11.305322,294.14842)"
         style="fill:#008500;fill-opacity:1"
         id="use70-2">
        <path
           style="stroke:none"
           d="m 17.140625,-40.96875 c 4.21875,0 7.835937,2.0625 10.859375,6.1875 3.03125,4.117188 4.546875,9.042969 4.546875,14.78125 0,5.835938 -1.527344,10.792969 -4.578125,14.875 C 24.925781,-1.039062 21.226562,1 16.875,1 12.539062,1 8.84375,-1.050781 5.78125,-5.15625 2.726562,-9.257812 1.203125,-14.207031 1.203125,-20 c 0,-5.863281 1.539063,-10.820312 4.625,-14.875 3.082031,-4.0625 6.851563,-6.09375 11.3125,-6.09375 z M 16.875,-29.203125 c -1.824219,0 -3.375,0.902344 -4.65625,2.703125 -1.28125,1.792969 -1.921875,3.960938 -1.921875,6.5 0,2.53125 0.644531,4.699219 1.9375,6.5 1.289063,1.792969 2.835937,2.6875 4.640625,2.6875 1.832031,0 3.382812,-0.890625 4.65625,-2.671875 1.28125,-1.789063 1.921875,-3.960937 1.921875,-6.515625 0,-2.5625 -0.640625,-4.734375 -1.921875,-6.515625 -1.273438,-1.789063 -2.824219,-2.6875 -4.65625,-2.6875 z m 0,0"
           id="path1069-1"
           inkscape:connector-curvature="0" />
      </g>
      <g
         transform="matrix(0.05578249,0,0,0.10371076,13.351984,294.14842)"
         style="fill:#008500;fill-opacity:1"
         id="use72-7">
        <path
           style="stroke:none"
           d="m 2.375,0 v -28.828125 c 0,-3.570313 0.804688,-6.488281 2.421875,-8.75 1.625,-2.257813 3.726563,-3.390625 6.3125,-3.390625 3.050781,0 5.40625,1.882812 7.0625,5.640625 1,-2.03125 2.070313,-3.476563 3.21875,-4.34375 1.15625,-0.863281 2.578125,-1.296875 4.265625,-1.296875 2.6875,0 4.742188,1.132812 6.171875,3.390625 1.425781,2.261719 2.140625,5.523437 2.140625,9.78125 V 0 h -8.875 v -26.015625 c 0,-1.28125 -0.07813,-2.128906 -0.234375,-2.546875 -0.148437,-0.425781 -0.453125,-0.640625 -0.921875,-0.640625 -0.875,0 -1.3125,0.996094 -1.3125,2.984375 V 0 H 13.75 v -26.015625 c 0,-1.257813 -0.08594,-2.101563 -0.25,-2.53125 -0.15625,-0.4375 -0.46875,-0.65625 -0.9375,-0.65625 -0.875,0 -1.3125,1.0625 -1.3125,3.1875 V 0 Z m 0,0"
           id="path1093-7"
           inkscape:connector-curvature="0" />
      </g>
      <g
         transform="matrix(0.05578249,0,0,0.10371076,15.639226,294.14842)"
         style="fill:#008500;fill-opacity:1"
         id="use74-9">
        <path
           style="stroke:none"
           d="M 13.8125,-20.0625 V -9.515625 H 11.25 V 0 H 2.375 v -25.421875 c 0,-4.914063 1,-8.734375 3,-11.453125 2.007812,-2.726562 4.832031,-4.09375 8.46875,-4.09375 3.488281,0 6.070312,1.234375 7.75,3.703125 1.675781,2.46875 2.515625,6.28125 2.515625,11.4375 V 0 h -8.875 v -25.046875 c 0,-1.5625 -0.140625,-2.644531 -0.421875,-3.25 -0.273438,-0.601563 -0.765625,-0.90625 -1.484375,-0.90625 -1.386719,0 -2.078125,1.386719 -2.078125,4.15625 v 4.984375 z m 0,0"
           id="path1089-7"
           inkscape:connector-curvature="0" />
      </g>
      <g
         transform="matrix(0.05578249,0,0,0.10371076,17.4314,294.14842)"
         style="fill:#008500;fill-opacity:1"
         id="use76-6">
        <path
           style="stroke:none"
           d="M 28.890625,-39.984375 21.03125,-21.84375 28.859375,0 h -9.96875 L 12.125,-22.078125 l 7.65625,-17.90625 z m -17.015625,0 V 0 H 3 v -39.984375 z m 0,0"
           id="path1097-2"
           inkscape:connector-curvature="0" />
      </g>
      <g
         transform="matrix(0.05578249,0,0,0.10371076,19.407531,294.14842)"
         style="fill:#008500;fill-opacity:1"
         id="use78-71">
        <path
           style="stroke:none"
           d="m 18.90625,-24.421875 v 8.90625 h -5.796875 c -0.78125,0 -1.339844,0.15625 -1.671875,0.46875 -0.324219,0.304687 -0.484375,0.828125 -0.484375,1.578125 0,0.835938 0.164063,1.386719 0.5,1.65625 0.332031,0.261719 1.019531,0.390625 2.0625,0.390625 H 19.46875 V 0 H 12.5 C 9.21875,0 6.707031,-1.046875 4.96875,-3.140625 3.238281,-5.242188 2.375,-8.28125 2.375,-12.25 v -15.65625 c 0,-3.832031 0.816406,-6.800781 2.453125,-8.90625 1.644531,-2.113281 3.957031,-3.171875 6.9375,-3.171875 H 19.46875 V -28.5 H 13.8125 c -1.53125,0 -2.296875,0.667969 -2.296875,2 0,0.78125 0.179687,1.324219 0.546875,1.625 0.363281,0.304688 1.015625,0.453125 1.953125,0.453125 z m 0,0"
           id="path1101-5"
           inkscape:connector-curvature="0" />
      </g>
      <g
         transform="matrix(0.05578249,0,0,0.10371076,21.110305,294.14842)"
         style="fill:#008500;fill-opacity:1"
         id="use80-8">
        <path
           style="stroke:none"
           d="M 11.875,-29.234375 V 0 H 3 v -39.984375 h 11.375 c 3.46875,0 6.160156,1.152344 8.078125,3.453125 2.125,2.585938 3.1875,5.855469 3.1875,9.8125 0,4.042969 -1.320313,7.453125 -3.953125,10.234375 L 26.796875,0 h -9.3125 L 13.1875,-12.890625 v -10.28125 h 0.6875 c 1.863281,0 2.796875,-1.070313 2.796875,-3.21875 0,-1.894531 -1.078125,-2.84375 -3.234375,-2.84375 z m 0,0"
           id="path1077-8"
           inkscape:connector-curvature="0" />
      </g>
      <g
         transform="matrix(0.05578249,0,0,0.10371076,22.959104,294.14842)"
         style="fill:#008500;fill-opacity:1"
         id="use82-4">
        <path
           style="stroke:none"
           d="m 17,-40.15625 v 11.390625 c -0.636719,-0.289063 -1.132812,-0.4375 -1.484375,-0.4375 -0.667969,0 -1.242187,0.335937 -1.71875,1 -0.480469,0.667969 -0.71875,1.46875 -0.71875,2.40625 0,0.792969 0.257813,1.808594 0.78125,3.046875 l 0.671875,1.578125 c 1.226562,2.84375 1.84375,5.59375 1.84375,8.25 0,3.886719 -1.03125,7.179687 -3.09375,9.875 C 11.21875,-0.347656 8.703125,1 5.734375,1 c -1.4375,0 -2.855469,-0.445312 -4.25,-1.328125 v -11.5625 c 0.84375,0.71875 1.59375,1.078125 2.25,1.078125 0.769531,0 1.414063,-0.296875 1.9375,-0.890625 0.519531,-0.59375 0.78125,-1.335937 0.78125,-2.234375 0,-0.59375 -0.417969,-1.875 -1.25,-3.84375 -1.324219,-3.125 -1.984375,-6.25 -1.984375,-9.375 0,-3.757812 1,-7 3,-9.71875 2,-2.726562 4.394531,-4.09375 7.1875,-4.09375 1.21875,0 2.414062,0.273438 3.59375,0.8125 z m 0,0"
           id="path1105-5"
           inkscape:connector-curvature="0" />
      </g>
      <path
         inkscape:connector-curvature="0"
         id="path4063"
         d="M 8.9433539,290.47041 Z"
         style="fill:none;stroke:#000000;stroke-width:0.03442097px;stroke-linecap:butt;stroke-linejoin:miter;stroke-opacity:1" />
    </g>
    <g
       id="g8680"
       transform="matrix(0.87752103,0,0,0.87752103,-19.6649,35.724851)">
      <g
         transform="matrix(0.07063141,0,0,0.13131786,65.395316,294.45851)"
         style="fill:#008500;fill-opacity:1"
         id="use70">
        <path
           style="stroke:none"
           d="m 17.140625,-40.96875 c 4.21875,0 7.835937,2.0625 10.859375,6.1875 3.03125,4.117188 4.546875,9.042969 4.546875,14.78125 0,5.835938 -1.527344,10.792969 -4.578125,14.875 C 24.925781,-1.039062 21.226562,1 16.875,1 12.539062,1 8.84375,-1.050781 5.78125,-5.15625 2.726562,-9.257812 1.203125,-14.207031 1.203125,-20 c 0,-5.863281 1.539063,-10.820312 4.625,-14.875 3.082031,-4.0625 6.851563,-6.09375 11.3125,-6.09375 z M 16.875,-29.203125 c -1.824219,0 -3.375,0.902344 -4.65625,2.703125 -1.28125,1.792969 -1.921875,3.960938 -1.921875,6.5 0,2.53125 0.644531,4.699219 1.9375,6.5 1.289063,1.792969 2.835937,2.6875 4.640625,2.6875 1.832031,0 3.382812,-0.890625 4.65625,-2.671875 1.28125,-1.789063 1.921875,-3.960937 1.921875,-6.515625 0,-2.5625 -0.640625,-4.734375 -1.921875,-6.515625 -1.273438,-1.789063 -2.824219,-2.6875 -4.65625,-2.6875 z m 0,0"
           id="path1069"
           inkscape:connector-curvature="0" />
      </g>
      <g
         transform="matrix(0.07063141,0,0,0.13131786,67.986786,294.45851)"
         style="fill:#008500;fill-opacity:1"
         id="use72">
        <path
           style="stroke:none"
           d="m 2.375,0 v -28.828125 c 0,-3.570313 0.804688,-6.488281 2.421875,-8.75 1.625,-2.257813 3.726563,-3.390625 6.3125,-3.390625 3.050781,0 5.40625,1.882812 7.0625,5.640625 1,-2.03125 2.070313,-3.476563 3.21875,-4.34375 1.15625,-0.863281 2.578125,-1.296875 4.265625,-1.296875 2.6875,0 4.742188,1.132812 6.171875,3.390625 1.425781,2.261719 2.140625,5.523437 2.140625,9.78125 V 0 h -8.875 v -26.015625 c 0,-1.28125 -0.07813,-2.128906 -0.234375,-2.546875 -0.148437,-0.425781 -0.453125,-0.640625 -0.921875,-0.640625 -0.875,0 -1.3125,0.996094 -1.3125,2.984375 V 0 H 13.75 v -26.015625 c 0,-1.257813 -0.08594,-2.101563 -0.25,-2.53125 -0.15625,-0.4375 -0.46875,-0.65625 -0.9375,-0.65625 -0.875,0 -1.3125,1.0625 -1.3125,3.1875 V 0 Z m 0,0"
           id="path1093"
           inkscape:connector-curvature="0" />
      </g>
      <g
         transform="matrix(0.07063141,0,0,0.13131786,70.882875,294.45851)"
         style="fill:#008500;fill-opacity:1"
         id="use74">
        <path
           style="stroke:none"
           d="M 13.8125,-20.0625 V -9.515625 H 11.25 V 0 H 2.375 v -25.421875 c 0,-4.914063 1,-8.734375 3,-11.453125 2.007812,-2.726562 4.832031,-4.09375 8.46875,-4.09375 3.488281,0 6.070312,1.234375 7.75,3.703125 1.675781,2.46875 2.515625,6.28125 2.515625,11.4375 V 0 h -8.875 v -25.046875 c 0,-1.5625 -0.140625,-2.644531 -0.421875,-3.25 -0.273438,-0.601563 -0.765625,-0.90625 -1.484375,-0.90625 -1.386719,0 -2.078125,1.386719 -2.078125,4.15625 v 4.984375 z m 0,0"
           id="path1089"
           inkscape:connector-curvature="0" />
      </g>
      <g
         transform="matrix(0.07063141,0,0,0.13131786,73.152112,294.45851)"
         style="fill:#008500;fill-opacity:1"
         id="use76">
        <path
           style="stroke:none"
           d="M 28.890625,-39.984375 21.03125,-21.84375 28.859375,0 h -9.96875 L 12.125,-22.078125 l 7.65625,-17.90625 z m -17.015625,0 V 0 H 3 v -39.984375 z m 0,0"
           id="path1097"
           inkscape:connector-curvature="0" />
      </g>
      <g
         transform="matrix(0.07063141,0,0,0.13131786,75.654276,294.45851)"
         style="fill:#008500;fill-opacity:1"
         id="use78">
        <path
           style="stroke:none"
           d="m 18.90625,-24.421875 v 8.90625 h -5.796875 c -0.78125,0 -1.339844,0.15625 -1.671875,0.46875 -0.324219,0.304687 -0.484375,0.828125 -0.484375,1.578125 0,0.835938 0.164063,1.386719 0.5,1.65625 0.332031,0.261719 1.019531,0.390625 2.0625,0.390625 H 19.46875 V 0 H 12.5 C 9.21875,0 6.707031,-1.046875 4.96875,-3.140625 3.238281,-5.242188 2.375,-8.28125 2.375,-12.25 v -15.65625 c 0,-3.832031 0.816406,-6.800781 2.453125,-8.90625 1.644531,-2.113281 3.957031,-3.171875 6.9375,-3.171875 H 19.46875 V -28.5 H 13.8125 c -1.53125,0 -2.296875,0.667969 -2.296875,2 0,0.78125 0.179687,1.324219 0.546875,1.625 0.363281,0.304688 1.015625,0.453125 1.953125,0.453125 z m 0,0"
           id="path1101"
           inkscape:connector-curvature="0" />
      </g>
      <g
         transform="matrix(0.07063141,0,0,0.13131786,77.810317,294.45851)"
         style="fill:#008500;fill-opacity:1"
         id="use80">
        <path
           style="stroke:none"
           d="M 11.875,-29.234375 V 0 H 3 v -39.984375 h 11.375 c 3.46875,0 6.160156,1.152344 8.078125,3.453125 2.125,2.585938 3.1875,5.855469 3.1875,9.8125 0,4.042969 -1.320313,7.453125 -3.953125,10.234375 L 26.796875,0 h -9.3125 L 13.1875,-12.890625 v -10.28125 h 0.6875 c 1.863281,0 2.796875,-1.070313 2.796875,-3.21875 0,-1.894531 -1.078125,-2.84375 -3.234375,-2.84375 z m 0,0"
           id="path1077"
           inkscape:connector-curvature="0" />
      </g>
      <g
         transform="matrix(0.07063141,0,0,0.13131786,80.151253,294.45851)"
         style="fill:#008500;fill-opacity:1"
         id="use82">
        <path
           style="stroke:none"
           d="m 17,-40.15625 v 11.390625 c -0.636719,-0.289063 -1.132812,-0.4375 -1.484375,-0.4375 -0.667969,0 -1.242187,0.335937 -1.71875,1 -0.480469,0.667969 -0.71875,1.46875 -0.71875,2.40625 0,0.792969 0.257813,1.808594 0.78125,3.046875 l 0.671875,1.578125 c 1.226562,2.84375 1.84375,5.59375 1.84375,8.25 0,3.886719 -1.03125,7.179687 -3.09375,9.875 C 11.21875,-0.347656 8.703125,1 5.734375,1 c -1.4375,0 -2.855469,-0.445312 -4.25,-1.328125 v -11.5625 c 0.84375,0.71875 1.59375,1.078125 2.25,1.078125 0.769531,0 1.414063,-0.296875 1.9375,-0.890625 0.519531,-0.59375 0.78125,-1.335937 0.78125,-2.234375 0,-0.59375 -0.417969,-1.875 -1.25,-3.84375 -1.324219,-3.125 -1.984375,-6.25 -1.984375,-9.375 0,-3.757812 1,-7 3,-9.71875 2,-2.726562 4.394531,-4.09375 7.1875,-4.09375 1.21875,0 2.414062,0.273438 3.59375,0.8125 z m 0,0"
           id="path1105"
           inkscape:connector-curvature="0" />
      </g>
      <g
         transform="matrix(0.07063141,0,0,0.13131786,62.105969,294.45899)"
         style="fill:#008500;fill-opacity:1"
         id="use78-5">
        <path
           style="stroke:none"
           d="m 18.90625,-24.421875 v 8.90625 h -5.796875 c -0.78125,0 -1.339844,0.15625 -1.671875,0.46875 -0.324219,0.304687 -0.484375,0.828125 -0.484375,1.578125 0,0.835938 0.164063,1.386719 0.5,1.65625 0.332031,0.261719 1.019531,0.390625 2.0625,0.390625 H 19.46875 V 0 H 12.5 C 9.21875,0 6.707031,-1.046875 4.96875,-3.140625 3.238281,-5.242188 2.375,-8.28125 2.375,-12.25 v -15.65625 c 0,-3.832031 0.816406,-6.800781 2.453125,-8.90625 1.644531,-2.113281 3.957031,-3.171875 6.9375,-3.171875 H 19.46875 V -28.5 H 13.8125 c -1.53125,0 -2.296875,0.667969 -2.296875,2 0,0.78125 0.179687,1.324219 0.546875,1.625 0.363281,0.304688 1.015625,0.453125 1.953125,0.453125 z m 0,0"
           id="path1101-3"
           inkscape:connector-curvature="0" />
      </g>
      <g
         transform="matrix(0.07063141,0,0,0.13131786,63.769072,294.45899)"
         style="fill:#008500;fill-opacity:1"
         id="use78-7">
        <path
           sodipodi:nodetypes="cccccczc"
           style="stroke:none"
           d="M 19.46875,-11.421875 V 0 C 4.9000845,-0.08557604 2.2051139,-2.6171103 2.375,-12.25 v -15.65625 c 0.013976,-9.477672 3.1758241,-11.823714 17.09375,-12.078125 V -28.5 c -6.882652,1.245484 -9.357412,4.020246 -9.390349,8.509825 -0.03294,4.48958 1.914205,7.10331 9.390349,8.5683 z"
           id="path1101-6"
           inkscape:connector-curvature="0" />
      </g>
    </g>
    <g
       id="g21300"
       transform="matrix(1.4641,0,0,1.4641,-29.225267,-136.03931)">
      <path
         inkscape:connector-curvature="0"
         id="path888"
         d="m 59.094806,293.79093 c 0.30392,-1.1086 -0.366982,-2.20716 -0.366982,-2.20716"
         style="fill:none;stroke:#000000;stroke-width:0.06003734;stroke-linecap:butt;stroke-linejoin:miter;stroke-miterlimit:4;stroke-dasharray:none;stroke-opacity:1" />
      <path
         sodipodi:nodetypes="cccc"
         inkscape:connector-curvature="0"
         id="path890"
         d="m 59.195026,293.10483 c 0.538191,-0.36704 0.475961,-0.7371 0.475961,-0.7371 v 0 c -0.297588,0.10112 -0.475961,0.7371 -0.475961,0.7371 z"
         style="fill:none;stroke:#000000;stroke-width:0.06003734;stroke-linecap:butt;stroke-linejoin:miter;stroke-miterlimit:4;stroke-dasharray:none;stroke-opacity:1" />
      <path
         sodipodi:nodetypes="cc"
         inkscape:connector-curvature="0"
         id="path892-1"
         d="m 59.177117,293.12072 c 0.284382,-0.43089 0.37843,-0.56198 0.37843,-0.56198"
         style="fill:none;stroke:#000000;stroke-width:0.06003734;stroke-linecap:butt;stroke-linejoin:miter;stroke-miterlimit:4;stroke-dasharray:none;stroke-opacity:1" />
      <path
         sodipodi:nodetypes="csc"
         inkscape:connector-curvature="0"
         id="path819"
         d="m 59.107469,291.58873 c 0.506533,0 0.734473,0.22472 0.658493,-0.14981 -0.07598,-0.37452 -0.506533,-0.42696 -0.7598,-0.13483"
         style="fill:#ffffff;fill-opacity:1;stroke:#000000;stroke-width:0.05488392;stroke-linecap:butt;stroke-linejoin:miter;stroke-miterlimit:4;stroke-dasharray:none;stroke-opacity:1" />
      <path
         sodipodi:nodetypes="csc"
         inkscape:connector-curvature="0"
         id="path819-9"
         d="m 58.3895,291.60883 c -0.506533,0 -0.734473,0.22472 -0.658493,-0.14981 0.07598,-0.37452 0.392563,-0.35954 0.759799,-0.13483"
         style="fill:#ffffff;fill-opacity:1;stroke:#000000;stroke-width:0.05488392;stroke-linecap:butt;stroke-linejoin:miter;stroke-miterlimit:4;stroke-dasharray:none;stroke-opacity:1" />
      <path
         sodipodi:nodetypes="cscsc"
         inkscape:connector-curvature="0"
         id="path836"
         d="m 59.006162,291.30408 c 0.198509,-0.19626 0.360665,-0.27569 0.08531,-0.34168 -0.330974,-0.0793 -0.3611,0.28236 -0.3611,0.28236 0,0 -0.0062,-0.35136 -0.350789,-0.25842 -0.398425,0.10744 -0.100735,0.20859 0.100068,0.31774"
         style="fill:#ffffff;fill-opacity:1;stroke:#000000;stroke-width:0.05488392;stroke-linecap:butt;stroke-linejoin:miter;stroke-miterlimit:4;stroke-dasharray:none;stroke-opacity:1" />
      <path
         sodipodi:nodetypes="cscccccc"
         inkscape:connector-curvature="0"
         id="path838"
         d="m 58.3895,291.60883 c -0.504805,0.15085 -0.831638,0.36801 -0.415261,0.60106 0.416375,0.23305 0.484248,-0.25445 0.595462,-0.37182 0,0 -0.288411,0.60513 0.170132,0.58899 0.468372,-0.0196 0.463279,-0.2391 0.25719,-0.52185 l -0.07522,-0.089 c 0.251286,0.30917 0.463445,0.36493 0.686597,0.16593 0.32611,-0.35581 -0.500934,-0.39343 -0.500934,-0.39343"
         style="fill:#ffffff;fill-opacity:1;stroke:#000000;stroke-width:0.05488392;stroke-linecap:butt;stroke-linejoin:miter;stroke-miterlimit:4;stroke-dasharray:none;stroke-opacity:1" />
      <path
         transform="scale(-1,1)"
         d="m -58.439646,291.54951 a 0.29125655,0.23628889 0 0 1 -0.245769,0.26803 0.29125655,0.23628889 0 0 1 -0.330535,-0.19921 0.29125655,0.23628889 0 0 1 0.245345,-0.26829 0.29125655,0.23628889 0 0 1 0.33085,0.19887 l -0.28807,0.0349 z"
         sodipodi:end="6.135129"
         sodipodi:start="6.1376947"
         sodipodi:ry="0.23628889"
         sodipodi:rx="0.29125655"
         sodipodi:cy="291.58377"
         sodipodi:cx="-58.727825"
         sodipodi:type="arc"
         id="path815"
         style="opacity:0.93000034;vector-effect:none;fill:#f8f865;fill-opacity:1;fill-rule:evenodd;stroke:#000000;stroke-width:0.12645951;stroke-linecap:butt;stroke-linejoin:miter;stroke-miterlimit:4;stroke-dasharray:none;stroke-dashoffset:0;stroke-opacity:1;paint-order:markers stroke fill" />
      <g
         transform="matrix(-0.04738036,0,0,0.0560522,61.636148,277.31149)"
         id="g932">
        <path
           style="fill:#ececec;fill-opacity:1;stroke:#000000;stroke-width:0.59899998;stroke-linecap:butt;stroke-linejoin:miter;stroke-miterlimit:4;stroke-dasharray:none;stroke-opacity:1"
           d="m 96.593493,248.21729 c 5.978637,-1.59953 8.089307,-2.61278 13.493697,-6.24117 1.48426,-0.91607 4.46312,-2.84809 4.13608,-3.45921 -0.41955,-0.78397 -3.91646,-0.69344 -8.31089,0.40518 -7.787096,1.94674 -10.847757,8.26714 -10.847757,8.26714"
           id="path915-1"
           inkscape:connector-curvature="0"
           sodipodi:nodetypes="ccssc" />
        <path
           style="opacity:0.93000034;vector-effect:none;fill:#f8f865;fill-opacity:1;fill-rule:evenodd;stroke:#000000;stroke-width:1.76070178;stroke-linecap:butt;stroke-linejoin:miter;stroke-miterlimit:4;stroke-dasharray:none;stroke-dashoffset:0;stroke-opacity:1;paint-order:markers stroke fill"
           id="path859-3"
           sodipodi:type="arc"
           sodipodi:cx="178.87477"
           sodipodi:cy="184.40515"
           sodipodi:rx="3.3476086"
           sodipodi:ry="4.0554833"
           sodipodi:start="6.1376947"
           sodipodi:end="6.135129"
           d="m 182.18701,183.8172 a 3.3476086,4.0554833 0 0 1 -2.82479,4.60021 3.3476086,4.0554833 0 0 1 -3.79906,-3.41916 3.3476086,4.0554833 0 0 1 2.81991,-4.6046 3.3476086,4.0554833 0 0 1 3.80269,3.41325 l -3.31099,0.59825 z"
           transform="matrix(0.90005599,0.43577427,-0.40981843,0.91216712,0,0)" />
        <path
           style="fill:none;stroke:#000000;stroke-width:0.76499999;stroke-linecap:butt;stroke-linejoin:miter;stroke-miterlimit:4;stroke-dasharray:none;stroke-opacity:1"
           d="m 84.45717,241.67521 c 0.141741,-5.64901 -8.285357,-2.53906 -8.285357,-2.53906"
           id="path878"
           inkscape:connector-curvature="0"
           sodipodi:nodetypes="cc" />
        <path
           style="fill:none;stroke:#000000;stroke-width:0.76499999;stroke-linecap:butt;stroke-linejoin:miter;stroke-miterlimit:4;stroke-dasharray:none;stroke-opacity:1"
           d="m 84.45717,241.67521 c 2.247471,-4.83238 -6.681738,-0.13363 -6.681738,-0.13363"
           id="path880"
           inkscape:connector-curvature="0"
           sodipodi:nodetypes="cc" />
        <path
           style="fill:#f8f865;fill-opacity:1;stroke:#000000;stroke-width:1.13800001;stroke-linecap:butt;stroke-linejoin:miter;stroke-miterlimit:4;stroke-dasharray:none;stroke-opacity:1"
           d="m 87.125563,251.48372 c 3.985754,-1.54832 3.573433,-6.25052 3.573433,-6.25052 v 0 c 6.318669,-0.70771 9.217916,6.93324 5.954546,10.37327 -3.183312,3.35566 -10.221755,1.29315 -9.527979,-4.12275 z"
           id="path882"
           inkscape:connector-curvature="0"
           sodipodi:nodetypes="cccsc" />
        <path
           style="fill:#f8f865;fill-opacity:1;stroke:#000000;stroke-width:1.16499996;stroke-linecap:butt;stroke-linejoin:miter;stroke-miterlimit:4;stroke-dasharray:none;stroke-opacity:1"
           d="m 92.463734,258.94624 c 6.52009,0.37797 7.22069,-5.82621 7.22069,-5.82621 10.110866,3.87425 5.964866,19.6484 -2.590481,21.73363 -5.606647,-6.04762 -4.504217,-10.42677 -4.630209,-15.90742 z"
           id="path901"
           inkscape:connector-curvature="0"
           sodipodi:nodetypes="cccc" />
        <path
           style="fill:none;stroke:#000000;stroke-width:1.16499996;stroke-linecap:butt;stroke-linejoin:miter;stroke-miterlimit:4;stroke-dasharray:none;stroke-opacity:1"
           d="m 87.550043,254.53744 c -5.102678,1.5119 -6.709076,-2.17336 -6.709076,-2.17336 -2.173363,-1.22843 -3.96875,-0.75595 -3.96875,-0.75595"
           id="path903"
           inkscape:connector-curvature="0"
           sodipodi:nodetypes="ccc" />
        <path
           style="fill:none;stroke:#000000;stroke-width:1.06500006;stroke-linecap:butt;stroke-linejoin:miter;stroke-miterlimit:4;stroke-dasharray:none;stroke-opacity:1"
           d="m 88.608376,255.78476 c 0.292981,1.70367 -0.699255,2.77812 -0.699255,2.77812 -4.91369,-0.85044 -6.066517,-2.00327 -6.066517,-2.00327 -2.903198,-0.25737 -5.382036,-1.48772 -5.382036,-1.48772"
           id="path905"
           inkscape:connector-curvature="0"
           sodipodi:nodetypes="cccc" />
        <path
           style="fill:none;stroke:#000000;stroke-width:1.36500001;stroke-linecap:butt;stroke-linejoin:miter;stroke-miterlimit:4;stroke-dasharray:none;stroke-opacity:1"
           d="m 90.00689,256.42732 c 0.850444,6.70908 -0.0945,5.00818 -0.0945,5.00818 -5.102673,-2.26785 -5.552216,-0.75873 -5.552216,-0.75873 -2.15312,0.37126 -4.558642,-0.56418 -4.558642,-0.56418"
           id="path907"
           inkscape:connector-curvature="0"
           sodipodi:nodetypes="cccc" />
        <path
           style="fill:none;stroke:#000000;stroke-width:2.16499996;stroke-linecap:round;stroke-linejoin:miter;stroke-miterlimit:4;stroke-dasharray:none;stroke-opacity:1"
           d="m 103.53575,256.73372 c -1.51191,5.38617 -4.835409,6.11919 -4.835409,6.11919"
           id="path909"
           inkscape:connector-curvature="0"
           sodipodi:nodetypes="cc" />
        <path
           style="fill:none;stroke:#000000;stroke-width:2.16499996;stroke-linecap:round;stroke-linejoin:round;stroke-miterlimit:4;stroke-dasharray:none;stroke-opacity:1"
           d="m 105.10301,261.45843 c -2.27458,4.1281 -4.89076,5.17425 -4.89076,5.17425"
           id="path911"
           inkscape:connector-curvature="0"
           sodipodi:nodetypes="cc" />
        <path
           style="fill:none;stroke:#000000;stroke-width:2.16499996;stroke-linecap:round;stroke-linejoin:bevel;stroke-miterlimit:4;stroke-dasharray:none;stroke-opacity:1"
           d="m 103.98235,267.61675 c -2.31511,3.35454 -4.21311,3.29108 -4.21311,3.29108"
           id="path913"
           inkscape:connector-curvature="0"
           sodipodi:nodetypes="cc" />
        <path
           style="fill:#ececec;fill-opacity:1;stroke:#000000;stroke-width:0.49900001;stroke-linecap:butt;stroke-linejoin:miter;stroke-miterlimit:4;stroke-dasharray:none;stroke-opacity:1"
           d="m 96.163615,250.66042 c 7.177625,-0.013 14.659685,0.65326 20.700355,-1.77221 1.64228,-0.58747 2.96401,-1.61457 2.77117,-2.28032 -0.24738,-0.85407 -5.39745,-3.0654 -9.92426,-2.90446 -8.02169,0.28519 -14.128842,5.97556 -14.128842,5.97556"
           id="path915"
           inkscape:connector-curvature="0"
           sodipodi:nodetypes="ccssc" />
        <path
           style="fill:none;stroke:#000000;stroke-width:0.26458332px;stroke-linecap:butt;stroke-linejoin:miter;stroke-opacity:1"
           d="m 95.880132,250.09348 c 8.300858,-6.23385 16.143868,-5.2889 16.143868,-5.2889"
           id="path932"
           inkscape:connector-curvature="0"
           sodipodi:nodetypes="cc" />
        <path
           style="fill:none;stroke:#000000;stroke-width:0.26458332px;stroke-linecap:butt;stroke-linejoin:miter;stroke-opacity:1"
           d="m 104.65347,245.65504 c 2.64583,1.13393 2.92931,1.88988 2.92931,1.88988"
           id="path934"
           inkscape:connector-curvature="0"
           sodipodi:nodetypes="cc" />
        <path
           style="fill:none;stroke:#000000;stroke-width:0.26458332px;stroke-linecap:butt;stroke-linejoin:miter;stroke-opacity:1"
           d="M 95.064623,247.18923 C 102.69731,238.14905 110.80759,239.094 110.80759,239.094"
           id="path932-8"
           inkscape:connector-curvature="0"
           sodipodi:nodetypes="cc" />
        <path
           style="fill:none;stroke:#000000;stroke-width:0.26458332px;stroke-linecap:butt;stroke-linejoin:miter;stroke-opacity:1"
           d="m 102.76888,240.8799 c 2.64583,1.13393 3.19658,1.75625 3.19658,1.75625"
           id="path934-5"
           inkscape:connector-curvature="0"
           sodipodi:nodetypes="cc" />
        <path
           style="fill:#000000;fill-opacity:1;stroke:#000000;stroke-width:0.19057743px;stroke-linecap:butt;stroke-linejoin:miter;stroke-opacity:1"
           d="m 83.165034,248.67713 c -1.766501,-0.92331 -0.0754,-6.15604 1.322386,-5.16297 0.466336,1.08672 -0.613924,4.95802 -1.322386,5.16297 z"
           id="path851"
           inkscape:connector-curvature="0"
           sodipodi:nodetypes="ccc" />
        <path
           style="fill:#ffffff;fill-opacity:1;stroke:#000000;stroke-width:0;stroke-linecap:butt;stroke-linejoin:miter;stroke-miterlimit:4;stroke-dasharray:none;stroke-opacity:1"
           d="m 82.872588,245.93848 c 0.09449,-1.48828 1.07149,-2.16446 1.07149,-2.16446 0.321609,1.05319 -1.07149,2.16446 -1.07149,2.16446 z"
           id="path865"
           inkscape:connector-curvature="0"
           sodipodi:nodetypes="csc" />
      </g>
    </g>
    <rect
       style="fill:#008500;fill-rule:evenodd;stroke-width:0.13959646;fill-opacity:1"
       id="rect902"
       width="0.97221953"
       height="0.46030742"
       x="32.875546"
       y="291.79126" />
  </g>
</svg>
