<?xml version="1.0" encoding="utf-8"?>
<!-- Generator: Adobe Illustrator 16.0.3, SVG Export Plug-In . SVG Version: 6.00 Build 0)  -->
<!DOCTYPE svg PUBLIC "-//W3C//DTD SVG 1.1//EN" "http://www.w3.org/Graphics/SVG/1.1/DTD/svg11.dtd">
<svg version="1.1" id="Capa_1" xmlns="http://www.w3.org/2000/svg" xmlns:xlink="http://www.w3.org/1999/xlink" x="0px" y="0px"
	 width="400px" height="300px" viewBox="0 0 400 300" enable-background="new 0 0 400 300" xml:space="preserve">
<g>
	<g>
		<path fill="#536DFE" stroke="#000000" stroke-width="0.5" d="M174.907,53.104c-26.204-0.006-47.45,20.833-47.457,46.546
			c0,16.798,9.215,32.294,24.119,40.556c0.457,0.253,0.998,0.322,1.505,0.179c0.5-0.14,0.928-0.465,1.183-0.908l14.636-25.38
			c0.538-0.935,0.204-2.119-0.744-2.642c-6.669-3.677-9.037-11.958-5.293-18.501c3.745-6.543,12.183-8.864,18.851-5.19
			c6.665,3.672,9.036,11.956,5.292,18.498c-1.246,2.174-3.076,3.97-5.292,5.194c-0.952,0.528-1.285,1.707-0.749,2.642l14.598,25.38
			c0.255,0.443,0.683,0.772,1.186,0.915c0.171,0.052,0.35,0.068,0.53,0.068c0.341,0,0.675-0.086,0.973-0.253
			c22.822-12.632,30.885-41.032,18.009-63.426c-8.417-14.636-24.221-23.687-41.347-23.679V53.104z"/>
		<path fill="#FFFFFF" d="M249.569,154.203c23.077-16.604,30.692-47.63,47.843-46.787c10.351,4.277-22.78,69.776-38.743,74.211
			c-18.813,8.988-23.576,11.3-47.388,16.693c-25.532,5.782-55.496-24.91-82.778-31.232c-3.099-0.723-9.18,3.952-9.18-1.12
			l4.885-9.781c0.889-1.777,0.845-4.013-0.111-5.738l-5.566-10.023c-0.78-1.405-0.705-3.288,0.239-4.544
			c29.439-39.126,63.261,7.131,91.476,5.484c37.377-2.185,55.116,14.116,23.551,23.666c-5.992,1.813-39.443-4.28-52.13,1.671"/>
		<path fill="none" stroke="#000000" stroke-width="0.797" d="M249.569,154.203c23.077-16.604,30.692-47.63,47.843-46.787
			c10.351,4.277-22.78,69.776-38.743,74.211c-18.813,8.988-23.576,11.3-47.388,16.693c-25.532,5.782-55.496-24.91-82.778-31.232
			c-3.099-0.723-9.18,3.952-9.18-1.12l4.885-9.781c0.889-1.777,0.845-4.013-0.111-5.738l-5.566-10.023
			c-0.78-1.405-0.705-3.288,0.239-4.544c29.439-39.126,63.261,7.131,91.476,5.484c37.377-2.185,55.116,14.116,23.551,23.666
			c-5.992,1.813-39.443-4.28-52.13,1.671"/>
		<path fill="#008700" d="M237.933,100.773c-11.696-42.184,25.781-48.344,26.59-48.344
			C265.332,52.429,282.631,97.029,237.933,100.773"/>
		<path fill="#008700" d="M215.826,54.808c14.908-38.443-32.873-44.06-33.905-44.06C180.887,10.748,175.496,64.232,215.826,54.808"
			/>
		<path fill="none" stroke="#000000" stroke-width="0.598" d="M227.361,141.02c3.904-40.404,26.924-66.716,26.924-66.716"/>
		<path fill="none" stroke="#000000" stroke-width="0.598" d="M226.026,140.502c6.288-98.944-32.297-107.57-32.297-107.57"/>
	</g>
	<circle fill="none" stroke="#008700" stroke-width="4" stroke-miterlimit="10" cx="199.705" cy="109.206" r="101.854"/>
</g>
<g>
	<path fill="#008700" d="M25.844,245.616v13.204h-2.691v11.921h-9.341v-31.838c0-6.162,1.054-10.948,3.163-14.359
		s5.073-5.117,8.892-5.117c3.681,0,6.404,1.547,8.167,4.641c1.764,3.093,2.646,7.867,2.646,14.323v32.351h-9.341v-31.36
		c0-1.956-0.146-3.313-0.437-4.071c-0.292-0.758-0.813-1.138-1.564-1.138c-1.458,0-2.186,1.736-2.186,5.209v6.235H25.844z"/>
	<path fill="#008700" d="M55.638,242.682h8.904c1.917,3.791,2.875,7.789,2.875,11.994c0,4.891-1.124,8.999-3.37,12.324
		c-2.247,3.326-5.012,4.988-8.294,4.988c-4.264,0-7.884-2.579-10.859-7.739c-2.976-5.159-4.463-11.444-4.463-18.854
		c0-7.433,1.515-13.619,4.544-18.56c3.029-4.938,6.813-7.409,11.354-7.409c1.549,0,3.267,0.502,5.153,1.504v14.892
		c-1.473-1.1-2.815-1.65-4.026-1.65c-2.193,0-3.984,1.089-5.372,3.265c-1.388,2.177-2.082,5.001-2.082,8.473
		c0,3.546,0.645,6.358,1.933,8.437c1.289,2.078,3.029,3.117,5.223,3.117c1.396,0,2.094-0.647,2.094-1.943
		c0-0.978-0.46-1.468-1.38-1.468h-2.232V242.682z"/>
	<path fill="#008700" d="M80.554,234.136v36.605h-9.341v-50.067h11.986c3.65,0,6.48,1.443,8.49,4.328
		c2.239,3.229,3.359,7.324,3.359,12.288c0,5.062-1.388,9.329-4.164,12.801l5.383,20.65h-9.801l-4.532-16.139v-12.875h0.736
		c1.963,0,2.945-1.344,2.945-4.034c0-2.372-1.135-3.558-3.405-3.558H80.554z"/>
	<path fill="#008700" d="M114.281,219.427c4.448,0,8.263,2.58,11.446,7.739c3.183,5.16,4.774,11.334,4.774,18.523
		c0,7.312-1.603,13.522-4.808,18.633c-3.206,5.111-7.102,7.666-11.688,7.666c-4.555,0-8.443-2.567-11.665-7.702
		c-3.221-5.136-4.832-11.334-4.832-18.597c0-7.336,1.622-13.547,4.866-18.633C105.619,221.971,109.588,219.427,114.281,219.427z
		 M114.005,234.172c-1.917,0-3.551,1.125-4.9,3.375c-1.35,2.25-2.025,4.964-2.025,8.143s0.679,5.894,2.036,8.143
		c1.357,2.25,2.987,3.375,4.889,3.375c1.933,0,3.569-1.119,4.912-3.356s2.013-4.958,2.013-8.161s-0.671-5.924-2.013-8.161
		S115.938,234.172,114.005,234.172z"/>
	<path fill="#536DFE" d="M151.645,240.15v11.15h-6.097c-0.829,0-1.415,0.196-1.76,0.587c-0.345,0.392-0.518,1.052-0.518,1.981
		c0,1.052,0.176,1.742,0.529,2.072c0.353,0.33,1.073,0.495,2.163,0.495h6.281v14.305h-7.339c-3.451,0-6.089-1.314-7.914-3.943
		c-1.826-2.628-2.738-6.424-2.738-11.389v-19.623c0-4.793,0.863-8.51,2.588-11.15c1.725-2.642,4.152-3.962,7.281-3.962h8.122v14.379
		h-5.959c-1.61,0-2.416,0.831-2.416,2.494c0,0.978,0.191,1.656,0.575,2.035c0.383,0.38,1.066,0.568,2.047,0.568H151.645z"/>
	<path fill="#536DFE" d="M178.838,246.276l9.778,0.403c-0.645,8.069-2.397,14.305-5.257,18.706s-6.591,6.603-11.192,6.603
		c-4.679,0-8.593-2.5-11.745-7.501c-3.152-5-4.728-11.205-4.728-18.614c0-7.458,1.606-13.73,4.82-18.816s7.174-7.63,11.883-7.63
		c4.632,0,8.497,2.494,11.595,7.482c2.147,3.448,3.666,8.253,4.555,14.415l-10.008,1.064c-1.12-5.478-3.244-8.217-6.373-8.217
		c-1.994,0-3.639,1.101-4.935,3.302c-1.296,2.2-1.944,5.001-1.944,8.399c0,3.276,0.636,5.984,1.91,8.124
		c1.273,2.14,2.883,3.21,4.832,3.21c1.979,0,3.555-0.941,4.728-2.825C177.93,252.5,178.623,249.798,178.838,246.276z"/>
	<path fill="#536DFE" d="M207.919,219.427c4.447,0,8.263,2.58,11.445,7.739c3.183,5.16,4.774,11.334,4.774,18.523
		c0,7.312-1.604,13.522-4.809,18.633c-3.206,5.111-7.102,7.666-11.688,7.666c-4.556,0-8.443-2.567-11.665-7.702
		c-3.221-5.136-4.832-11.334-4.832-18.597c0-7.336,1.622-13.547,4.866-18.633S203.226,219.427,207.919,219.427z M207.643,234.172
		c-1.918,0-3.551,1.125-4.9,3.375s-2.024,4.964-2.024,8.143s0.679,5.894,2.036,8.143c1.357,2.25,2.986,3.375,4.889,3.375
		c1.933,0,3.569-1.119,4.912-3.356c1.342-2.237,2.013-4.958,2.013-8.161s-0.671-5.924-2.013-8.161
		C211.212,235.291,209.575,234.172,207.643,234.172z"/>
	<path fill="#008700" d="M227.889,270.741v-36.093c0-4.475,0.852-8.13,2.554-10.967c1.702-2.836,3.911-4.255,6.626-4.255
		c3.221,0,5.697,2.36,7.431,7.079c1.059-2.543,2.193-4.358,3.405-5.446s2.707-1.633,4.486-1.633c2.822,0,4.984,1.419,6.488,4.255
		c1.503,2.837,2.254,6.921,2.254,12.251v34.809h-9.34V238.17c0-1.613-0.081-2.684-0.242-3.209s-0.487-0.789-0.978-0.789
		c-0.92,0-1.381,1.247-1.381,3.741v32.828h-9.341V238.17c0-1.589-0.084-2.652-0.253-3.19s-0.498-0.808-0.989-0.808
		c-0.92,0-1.38,1.333-1.38,3.998v32.571H227.889z"/>
	<path fill="#008700" d="M278.181,245.616v13.204h-2.691v11.921h-9.341v-31.838c0-6.162,1.055-10.948,3.163-14.359
		c2.109-3.411,5.073-5.117,8.893-5.117c3.681,0,6.403,1.547,8.167,4.641c1.764,3.093,2.646,7.867,2.646,14.323v32.351h-9.341v-31.36
		c0-1.956-0.146-3.313-0.437-4.071c-0.292-0.758-0.813-1.138-1.564-1.138c-1.457,0-2.186,1.736-2.186,5.209v6.235H278.181z"/>
	<path fill="#008700" d="M304.017,220.674v50.067h-9.34v-50.067H304.017z M321.939,220.674l-8.282,22.705l8.236,27.362h-10.491
		l-7.109-27.656l8.053-22.411H321.939z"/>
	<path fill="#008700" d="M341.817,240.15v11.15h-6.097c-0.828,0-1.415,0.196-1.76,0.587c-0.345,0.392-0.518,1.052-0.518,1.981
		c0,1.052,0.176,1.742,0.529,2.072c0.353,0.33,1.073,0.495,2.162,0.495h6.281v14.305h-7.339c-3.451,0-6.09-1.314-7.915-3.943
		c-1.825-2.628-2.737-6.424-2.737-11.389v-19.623c0-4.793,0.862-8.51,2.588-11.15c1.726-2.642,4.153-3.962,7.282-3.962h8.121v14.379
		h-5.959c-1.61,0-2.416,0.831-2.416,2.494c0,0.978,0.192,1.656,0.575,2.035c0.384,0.38,1.066,0.568,2.048,0.568H341.817z"/>
	<path fill="#008700" d="M357.116,234.136v36.605h-9.34v-50.067h11.986c3.649,0,6.479,1.443,8.489,4.328
		c2.239,3.229,3.358,7.324,3.358,12.288c0,5.062-1.388,9.329-4.164,12.801l5.384,20.65h-9.801l-4.532-16.139v-12.875h0.736
		c1.963,0,2.944-1.344,2.944-4.034c0-2.372-1.135-3.558-3.404-3.558H357.116z"/>
	<path fill="#008700" d="M390.707,220.454v14.269c-0.676-0.367-1.196-0.551-1.564-0.551c-0.706,0-1.312,0.416-1.817,1.247
		c-0.507,0.832-0.76,1.834-0.76,3.008c0,1.003,0.276,2.274,0.828,3.814l0.714,1.981c1.288,3.57,1.933,7.018,1.933,10.343
		c0,4.866-1.086,8.986-3.256,12.361c-2.171,3.374-4.82,5.062-7.949,5.062c-1.503,0-2.99-0.55-4.463-1.65V255.85
		c0.89,0.905,1.68,1.357,2.37,1.357c0.813,0,1.491-0.373,2.036-1.119c0.544-0.746,0.816-1.681,0.816-2.806
		c0-0.733-0.438-2.335-1.312-4.806c-1.396-3.912-2.094-7.824-2.094-11.737c0-4.719,1.055-8.784,3.163-12.195
		c2.109-3.411,4.628-5.117,7.559-5.117C388.199,219.427,389.465,219.77,390.707,220.454z"/>
</g>
<g>
	<path fill="#536DFE" d="M102.075,280.662v7.247h-3.159v-10.166h4.116c1.805,0,3.219,0.393,4.241,1.177
		c1.214,0.938,1.821,2.212,1.821,3.82c0,1.539-0.519,2.796-1.556,3.769c-1.038,0.974-2.374,1.46-4.007,1.46
		c-0.192,0-0.506-0.01-0.941-0.029v-2.987h0.506c1.841,0,2.762-0.737,2.762-2.212c0-1.385-0.905-2.078-2.716-2.078H102.075z"/>
	<path fill="#536DFE" d="M117.987,284.647h-4.412c-0.067-0.214-0.101-0.41-0.101-0.589c0-0.248,0.047-0.491,0.14-0.729h1.479
		c-0.104-0.552-0.428-0.827-0.973-0.827c-0.363,0-0.659,0.148-0.887,0.443c-0.228,0.296-0.342,0.674-0.342,1.136
		c0,0.481,0.11,0.871,0.331,1.169c0.221,0.298,0.51,0.447,0.868,0.447c0.291,0,0.571-0.139,0.84-0.417l1.657,1.906
		c-0.773,0.581-1.631,0.872-2.575,0.872c-1.152,0-2.119-0.37-2.902-1.11c-0.783-0.739-1.175-1.655-1.175-2.748
		c0-1.087,0.395-2.006,1.187-2.756c0.791-0.749,1.762-1.124,2.914-1.124c1.125,0,2.071,0.366,2.836,1.099s1.148,1.635,1.148,2.707
		C118.019,284.235,118.008,284.409,117.987,284.647z"/>
	<path fill="#536DFE" d="M124.057,280.588v2.935c-0.41,0-0.691,0.073-0.844,0.22c-0.153,0.146-0.25,0.436-0.292,0.867
		c-0.135,1.436-0.716,2.448-1.743,3.039c-0.545,0.308-1.318,0.462-2.319,0.462h-0.405v-2.949h0.132c0.467,0,0.8-0.093,1-0.279
		s0.315-0.513,0.346-0.979c0.042-0.76,0.115-1.293,0.222-1.602c0.106-0.308,0.323-0.613,0.65-0.916
		c0.57-0.531,1.361-0.797,2.373-0.797H124.057z"/>
	<path fill="#536DFE" d="M129.316,285.124v2.882c-0.238,0.04-0.457,0.06-0.653,0.06c-1.167,0-2.14-0.367-2.918-1.103
		c-0.778-0.734-1.167-1.655-1.167-2.763c0-1.077,0.393-1.991,1.179-2.741c0.786-0.749,1.742-1.124,2.867-1.124
		c1.255,0,2.245,0.352,2.968,1.054c0.724,0.703,1.085,1.662,1.085,2.879v3.642h-2.91v-3.44c0-0.393-0.1-0.705-0.3-0.938
		s-0.468-0.351-0.805-0.351c-0.306,0-0.571,0.107-0.794,0.32c-0.223,0.214-0.334,0.467-0.334,0.76c0,0.308,0.101,0.562,0.304,0.76
		c0.202,0.198,0.459,0.298,0.77,0.298C128.863,285.317,129.099,285.253,129.316,285.124z"/>
	<path fill="#536DFE" d="M138.631,280.409v2.979c-0.203-0.109-0.387-0.164-0.553-0.164c-0.529,0-0.793,0.388-0.793,1.162v3.522
		h-2.91v-4.059c0-1.073,0.306-1.928,0.918-2.566c0.612-0.638,1.429-0.957,2.451-0.957
		C137.972,280.327,138.268,280.354,138.631,280.409z"/>
	<path fill="#536DFE" d="M143.743,280.409v2.979c-0.203-0.109-0.387-0.164-0.553-0.164c-0.529,0-0.793,0.388-0.793,1.162v3.522
		h-2.91v-4.059c0-1.073,0.306-1.928,0.918-2.566c0.612-0.638,1.429-0.957,2.451-0.957
		C143.083,280.327,143.379,280.354,143.743,280.409z"/>
	<path fill="#536DFE" d="M148.279,280.327c1.1,0,2.043,0.379,2.829,1.136c0.786,0.758,1.179,1.665,1.179,2.723
		c0,1.072-0.398,1.986-1.194,2.74c-0.796,0.755-1.757,1.133-2.883,1.133s-2.088-0.379-2.887-1.137
		c-0.799-0.757-1.198-1.669-1.198-2.736c0-1.088,0.399-2.002,1.198-2.745C146.121,280.698,147.106,280.327,148.279,280.327z
		 M148.201,283.075c-0.311,0-0.576,0.108-0.793,0.324s-0.327,0.48-0.327,0.793c0,0.309,0.11,0.571,0.331,0.79
		c0.22,0.219,0.483,0.327,0.79,0.327c0.312,0,0.577-0.108,0.798-0.327c0.22-0.219,0.331-0.481,0.331-0.79
		c0-0.313-0.109-0.577-0.327-0.793C148.785,283.184,148.518,283.075,148.201,283.075z"/>
	<path fill="#536DFE" d="M156.41,277.743v10.166h-2.91v-10.166H156.41z"/>
	<path fill="#536DFE" d="M161.024,277.743v10.166h-2.91v-10.166H161.024z"/>
	<path fill="#536DFE" d="M167.039,285.124v2.882c-0.238,0.04-0.457,0.06-0.653,0.06c-1.167,0-2.14-0.367-2.918-1.103
		c-0.778-0.734-1.167-1.655-1.167-2.763c0-1.077,0.393-1.991,1.179-2.741c0.786-0.749,1.742-1.124,2.867-1.124
		c1.255,0,2.245,0.352,2.968,1.054c0.724,0.703,1.085,1.662,1.085,2.879v3.642h-2.91v-3.44c0-0.393-0.1-0.705-0.3-0.938
		s-0.468-0.351-0.805-0.351c-0.306,0-0.571,0.107-0.794,0.32c-0.223,0.214-0.334,0.467-0.334,0.76c0,0.308,0.101,0.562,0.304,0.76
		c0.202,0.198,0.459,0.298,0.77,0.298C166.585,285.317,166.821,285.253,167.039,285.124z"/>
	<path fill="#536DFE" d="M179.014,287.909h-2.91v-4.193c0-0.427-0.184-0.641-0.553-0.641c-0.363,0-0.544,0.214-0.544,0.641v4.193
		h-2.91v-4.141c0-0.969,0.334-1.784,1.004-2.447c0.669-0.662,1.489-0.994,2.458-0.994c1.11,0,2,0.385,2.669,1.154
		c0.524,0.602,0.786,1.438,0.786,2.51V287.909z"/>
	<path fill="#536DFE" d="M185.488,277.743h2.91v6.188c0,1.138-0.311,2.063-0.934,2.778c-0.358,0.412-0.813,0.74-1.366,0.983
		c-0.552,0.243-1.119,0.365-1.7,0.365c-1.157,0-2.132-0.373-2.925-1.117c-0.794-0.745-1.19-1.659-1.19-2.741
		c0-1.048,0.394-1.954,1.183-2.719c0.788-0.765,1.722-1.146,2.801-1.146c0.171,0,0.43,0.015,0.778,0.045v3.068
		c-0.239-0.179-0.477-0.269-0.716-0.269c-0.301,0-0.559,0.105-0.774,0.316s-0.323,0.466-0.323,0.764
		c0,0.288,0.111,0.535,0.334,0.741s0.49,0.309,0.802,0.309c0.747,0,1.12-0.493,1.12-1.481V277.743z"/>
	<path fill="#536DFE" d="M193.611,280.327c1.1,0,2.043,0.379,2.829,1.136c0.786,0.758,1.179,1.665,1.179,2.723
		c0,1.072-0.398,1.986-1.194,2.74c-0.796,0.755-1.757,1.133-2.883,1.133s-2.088-0.379-2.887-1.137
		c-0.799-0.757-1.198-1.669-1.198-2.736c0-1.088,0.399-2.002,1.198-2.745C191.453,280.698,192.438,280.327,193.611,280.327z
		 M193.533,283.075c-0.311,0-0.576,0.108-0.793,0.324s-0.327,0.48-0.327,0.793c0,0.309,0.11,0.571,0.331,0.79
		c0.22,0.219,0.483,0.327,0.79,0.327c0.312,0,0.577-0.108,0.798-0.327c0.22-0.219,0.331-0.481,0.331-0.79
		c0-0.313-0.109-0.577-0.327-0.793C194.117,283.184,193.85,283.075,193.533,283.075z"/>
	<path fill="#536DFE" d="M205.726,277.743v10.166h-2.91v-10.166H205.726z"/>
	<path fill="#536DFE" d="M211.741,285.124v2.882c-0.239,0.04-0.457,0.06-0.654,0.06c-1.167,0-2.14-0.367-2.918-1.103
		c-0.777-0.734-1.167-1.655-1.167-2.763c0-1.077,0.394-1.991,1.179-2.741c0.786-0.749,1.742-1.124,2.868-1.124
		c1.255,0,2.244,0.352,2.968,1.054c0.724,0.703,1.086,1.662,1.086,2.879v3.642h-2.91v-3.44c0-0.393-0.101-0.705-0.3-0.938
		c-0.2-0.233-0.468-0.351-0.806-0.351c-0.306,0-0.57,0.107-0.793,0.32c-0.224,0.214-0.335,0.467-0.335,0.76
		c0,0.308,0.102,0.562,0.304,0.76s0.459,0.298,0.771,0.298C211.287,285.317,211.523,285.253,211.741,285.124z"/>
	<path fill="#536DFE" d="M225.094,285.124v2.882c-0.239,0.04-0.457,0.06-0.654,0.06c-1.167,0-2.14-0.367-2.918-1.103
		c-0.777-0.734-1.167-1.655-1.167-2.763c0-1.077,0.394-1.991,1.179-2.741c0.786-0.749,1.742-1.124,2.868-1.124
		c1.255,0,2.244,0.352,2.968,1.054c0.724,0.703,1.086,1.662,1.086,2.879v3.642h-2.91v-3.44c0-0.393-0.101-0.705-0.3-0.938
		c-0.2-0.233-0.468-0.351-0.806-0.351c-0.306,0-0.57,0.107-0.793,0.32c-0.224,0.214-0.335,0.467-0.335,0.76
		c0,0.308,0.102,0.562,0.304,0.76s0.459,0.298,0.771,0.298C224.64,285.317,224.876,285.253,225.094,285.124z"/>
	<path fill="#536DFE" d="M234.29,284.849v2.554c-0.42,0.149-0.822,0.224-1.206,0.224c-0.938,0-1.733-0.34-2.385-1.021
		c-0.65-0.68-0.977-1.512-0.977-2.494c0-1.063,0.392-1.959,1.175-2.689c0.783-0.729,1.746-1.095,2.887-1.095
		c0.607,0,1.188,0.117,1.743,0.351c0.556,0.233,0.991,0.546,1.308,0.938c0.529,0.65,0.794,1.594,0.794,2.83v2.442
		c0,1.326-0.394,2.402-1.18,3.229c-0.785,0.827-1.809,1.24-3.069,1.24c-0.384,0-0.869-0.092-1.455-0.275v-2.532
		c0.379,0.198,0.763,0.298,1.151,0.298c0.524,0,0.929-0.165,1.214-0.495s0.429-0.804,0.429-1.419v-2.793
		c0-0.779-0.33-1.169-0.988-1.169c-0.28,0-0.525,0.103-0.735,0.309s-0.315,0.443-0.315,0.711c0,0.283,0.1,0.52,0.3,0.708
		c0.199,0.188,0.447,0.283,0.743,0.283C233.92,284.982,234.108,284.938,234.29,284.849z"/>
	<path fill="#536DFE" d="M243.597,280.409v2.979c-0.202-0.109-0.387-0.164-0.553-0.164c-0.529,0-0.794,0.388-0.794,1.162v3.522
		h-2.91v-4.059c0-1.073,0.307-1.928,0.919-2.566c0.611-0.638,1.429-0.957,2.451-0.957
		C242.938,280.327,243.233,280.354,243.597,280.409z"/>
	<path fill="#536DFE" d="M247.362,280.483v7.426h-2.91v-7.426H247.362z M245.915,277.17c0.395,0,0.735,0.133,1.023,0.398
		s0.432,0.579,0.432,0.941c0,0.388-0.136,0.705-0.408,0.954c-0.272,0.248-0.621,0.372-1.047,0.372c-0.425,0-0.773-0.124-1.046-0.372
		c-0.272-0.249-0.409-0.566-0.409-0.954c0-0.362,0.145-0.676,0.433-0.941C245.18,277.303,245.521,277.17,245.915,277.17z"/>
	<path fill="#536DFE" d="M253.837,284.49l2.887-0.104c-0.083,1.072-0.501,1.953-1.253,2.644s-1.668,1.035-2.747,1.035
		c-1.141,0-2.104-0.38-2.891-1.14c-0.785-0.76-1.179-1.69-1.179-2.793c0-1.047,0.397-1.943,1.19-2.688
		c0.794-0.744,1.746-1.117,2.855-1.117c0.971,0,1.826,0.293,2.568,0.879c0.741,0.586,1.203,1.333,1.385,2.242l-2.949,0.104
		c-0.254-0.318-0.575-0.478-0.965-0.478c-0.332,0-0.604,0.104-0.816,0.313c-0.213,0.208-0.319,0.472-0.319,0.789
		c0,0.323,0.113,0.594,0.339,0.812c0.226,0.219,0.507,0.328,0.844,0.328C253.279,285.317,253.629,285.042,253.837,284.49z"/>
	<path fill="#536DFE" d="M257.991,280.588h2.91v4.193c0,0.422,0.185,0.633,0.553,0.633c0.363,0,0.545-0.211,0.545-0.633v-4.193h2.91
		v4.142c0,0.963-0.335,1.775-1.004,2.438s-1.489,0.994-2.459,0.994c-1.104,0-1.994-0.385-2.669-1.154
		c-0.523-0.601-0.786-1.435-0.786-2.502V280.588z"/>
	<path fill="#536DFE" d="M269.515,277.743v10.166h-2.91v-10.166H269.515z"/>
	<path fill="#536DFE" d="M273.811,277.743v2.845h1.307v2.942h-1.307c0,0.591,0.097,0.998,0.292,1.221
		c0.194,0.224,0.551,0.336,1.069,0.336v2.927c-0.15,0.005-0.262,0.007-0.334,0.007c-0.659,0-1.28-0.146-1.864-0.439
		c-0.583-0.292-1.052-0.689-1.404-1.191c-0.446-0.641-0.669-1.489-0.669-2.547v-6.1H273.811z"/>
	<path fill="#536DFE" d="M276.549,280.588h2.91v4.193c0,0.422,0.185,0.633,0.553,0.633c0.363,0,0.545-0.211,0.545-0.633v-4.193h2.91
		v4.142c0,0.963-0.335,1.775-1.004,2.438s-1.489,0.994-2.459,0.994c-1.104,0-1.994-0.385-2.669-1.154
		c-0.523-0.601-0.786-1.435-0.786-2.502V280.588z"/>
	<path fill="#536DFE" d="M289.419,280.409v2.979c-0.202-0.109-0.387-0.164-0.553-0.164c-0.529,0-0.794,0.388-0.794,1.162v3.522
		h-2.91v-4.059c0-1.073,0.307-1.928,0.919-2.566c0.611-0.638,1.429-0.957,2.451-0.957
		C288.76,280.327,289.056,280.354,289.419,280.409z"/>
	<path fill="#536DFE" d="M294.586,285.124v2.882c-0.239,0.04-0.457,0.06-0.654,0.06c-1.167,0-2.14-0.367-2.918-1.103
		c-0.777-0.734-1.167-1.655-1.167-2.763c0-1.077,0.394-1.991,1.179-2.741c0.786-0.749,1.742-1.124,2.868-1.124
		c1.255,0,2.244,0.352,2.968,1.054c0.724,0.703,1.086,1.662,1.086,2.879v3.642h-2.91v-3.44c0-0.393-0.101-0.705-0.3-0.938
		c-0.2-0.233-0.468-0.351-0.806-0.351c-0.306,0-0.57,0.107-0.793,0.32c-0.224,0.214-0.335,0.467-0.335,0.76
		c0,0.308,0.102,0.562,0.304,0.76s0.459,0.298,0.771,0.298C294.132,285.317,294.368,285.253,294.586,285.124z"/>
</g>
<g>
</g>
<g>
</g>
<g>
</g>
<g>
</g>
<g>
</g>
<g>
</g>
<g>
</g>
<g>
</g>
<g>
</g>
<g>
</g>
<g>
</g>
<g>
</g>
<g>
</g>
<g>
</g>
<g>
</g>
</svg>
